<svg width="20" height="20" viewBox="0 0 20 20" fill="none" xmlns="http://www.w3.org/2000/svg">
<path fill-rule="evenodd" clip-rule="evenodd" d="M9.99967 10.833C9.08301 10.833 8.33301 11.583 8.33301 12.4997C8.33301 13.4163 9.08301 14.1663 9.99967 14.1663C10.9163 14.1663 11.6663 13.4163 11.6663 12.4997C11.6663 11.583 10.9163 10.833 9.99967 10.833ZM14.9997 6.66634H14.1663V4.99967C14.1663 2.69967 12.2997 0.833008 9.99967 0.833008C8.09967 0.833008 6.44134 2.11634 5.96634 3.95801C5.84967 4.40801 6.11634 4.85801 6.56634 4.97467C7.00801 5.09134 7.46634 4.82467 7.58301 4.37467C7.86634 3.27467 8.85801 2.49967 9.99967 2.49967C11.3747 2.49967 12.4997 3.62467 12.4997 4.99967V6.66634H4.99967C4.08301 6.66634 3.33301 7.41634 3.33301 8.33301V16.6663C3.33301 17.583 4.08301 18.333 4.99967 18.333H14.9997C15.9163 18.333 16.6663 17.583 16.6663 16.6663V8.33301C16.6663 7.41634 15.9163 6.66634 14.9997 6.66634ZM14.9997 15.833C14.9997 16.2913 14.6247 16.6663 14.1663 16.6663H5.83301C5.37467 16.6663 4.99967 16.2913 4.99967 15.833V9.16634C4.99967 8.70801 5.37467 8.33301 5.83301 8.33301H14.1663C14.6247 8.33301 14.9997 8.70801 14.9997 9.16634V15.833Z" fill="#F7F9FC"/>
</svg>
