<svg width="24" height="24" viewBox="0 0 24 24" fill="none" xmlns="http://www.w3.org/2000/svg">
<path fill-rule="evenodd" clip-rule="evenodd" d="M20.71 5.62957L18.37 3.28957C17.98 2.89957 17.35 2.89957 16.96 3.28957L13.84 6.40957L12.61 5.19957C12.22 4.80957 11.59 4.81957 11.2 5.19957C10.81 5.58957 10.81 6.21957 11.2 6.60957L11.92 7.32957L3.15 16.0996C3.05 16.1996 3 16.3196 3 16.4596V20.4996C3 20.7796 3.22 20.9996 3.5 20.9996H7.54C7.67 20.9996 7.8 20.9496 7.89 20.8496L16.66 12.0796L17.38 12.7996C17.77 13.1896 18.4 13.1896 18.79 12.7996C19.18 12.4096 19.18 11.7796 18.79 11.3896L17.57 10.1696L20.69 7.04957C21.1 6.64957 21.1 6.01957 20.71 5.62957ZM6.92 18.9996L5 17.0796L13.06 9.01957L14.98 10.9396L6.92 18.9996Z" fill="#1D1D1D"/>
</svg>
